<?xml version="1.0" standalone="yes"?>
<svg xmlns="http://www.w3.org/2000/svg" width="154" height="166">
<path style="fill:#151817; stroke:none;" d="M0 0L0 166L154 166L154 0L0 0z"/>
<path style="fill:#0e414e; stroke:none;" d="M19 37L19 56C21.0196 51.1871 21.0196 41.8129 19 37z"/>
<path style="fill:#0397c0; stroke:none;" d="M20 37C20 43.6593 20.5507 50.4868 19 57L17 57C16.1514 55.0088 15.733 54.2224 14 53C14.4319 55.7063 17.8647 61.4489 20.3966 56.5617C22.5468 52.4115 21.7481 41.1659 20 37z"/>
<path style="fill:#067998; stroke:none;" d="M21 37L21 56C23.0196 51.1871 23.0196 41.8129 21 37z"/>
<path style="fill:#0397c0; stroke:none;" d="M55 37L55 39L60 39L60 59C62.398 53.2854 61 45.1692 61 39L66 39L66 37L55 37z"/>
<path style="fill:#0b566a; stroke:none;" d="M59 39L59 59C61.0866 54.0273 61.0866 43.9727 59 39M61 39L61 59C63.0866 54.0273 63.0866 43.9727 61 39z"/>
<path style="fill:#0397c0; stroke:none;" d="M27.3133 43.1759C22.8121 45.2984 24.2546 61.448 30.571 57.7623C34.9212 55.224 33.5437 40.2381 27.3133 43.1759z"/>
<path style="fill:#0b5669; stroke:none;" d="M37 42L38 43L37 42z"/>
<path style="fill:#0397c0; stroke:none;" d="M40 57L38 57C36.9988 55.0762 36.9225 54.9015 35 54C36.0965 57.6105 41.3377 60.8857 41.7932 54.9452C42.1144 50.7559 38.1691 48.1424 38 44L40 44L41 47C41.8926 42.7758 36.572 41.5289 36.2068 46.0949C35.8789 50.1944 39.8354 52.8754 40 57z"/>
<path style="fill:#0c5061; stroke:none;" d="M40 42L41 43L40 42z"/>
<path style="fill:#0397c0; stroke:none;" d="M53 53C49.7719 56.3624 47.7363 55.5832 47 51L53 51C52.9751 48.8952 53.2705 46.1603 51.9722 44.3356C48.77 39.835 45.3064 45.9418 45.0594 49.0008C44.884 51.1725 44.8654 53.9197 46.0278 55.8472C49.0009 60.7772 52.408 56.709 53 53M68.3133 43.1759C63.812 45.2984 65.2546 61.448 71.571 57.7623C75.9211 55.224 74.5437 40.2381 68.3133 43.1759z"/>
<path style="fill:#0b566a; stroke:none;" d="M76 42L76 59C77.8826 54.5135 77.8826 46.4865 76 42z"/>
<path style="fill:#0397c0; stroke:none;" d="M77 42L77 59C78.4317 55.5881 76.7494 50.4029 79.0085 47.466C80.5459 45.4674 82.209 47.3882 82.6829 49.0779C83.5358 52.1195 83 55.8639 83 59C84.9913 54.2544 83.9014 48.9526 86 44C87.1863 45.1863 87.5838 45.5279 89 46L88 42C84.8676 42.7419 79.5581 43.7906 77 42z"/>
<path style="fill:#0c5163; stroke:none;" d="M82 42L83 43L82 42z"/>
<path style="fill:#0b566a; stroke:none;" d="M92 42L92 59C93.8826 54.5135 93.8826 46.4865 92 42z"/>
<path style="fill:#0397c0; stroke:none;" d="M93 42L93 59C94.4317 55.5881 92.7494 50.4029 95.0085 47.466C96.5459 45.4674 98.209 47.3882 98.6829 49.0779C99.5358 52.1195 99 55.8639 99 59C100.991 54.2544 99.9014 48.9526 102 44C103.186 45.1863 103.584 45.5279 105 46L104 42C100.868 42.7419 95.5581 43.7906 93 42z"/>
<path style="fill:#0c5163; stroke:none;" d="M98 42L99 43L98 42z"/>
<path style="fill:#0397c0; stroke:none;" d="M109 47L114 44L115 49C113.032 49.3139 111.211 49.4477 110.024 51.3179C107.762 54.8827 109.935 59.7726 114 57C115.186 58.1863 115.584 58.5279 117 59C116.218 54.7856 117.315 48.1407 115.397 44.4383C113.174 40.1491 109.777 44.4476 109 47z"/>
<path style="fill:#0e4856; stroke:none;" d="M114 42L115 43L114 42z"/>
<path style="fill:#0b5669; stroke:none;" d="M121 42L122 43L121 42z"/>
<path style="fill:#0397c0; stroke:none;" d="M124 57L122 57C120.999 55.0762 120.923 54.9015 119 54C120.097 57.6105 125.338 60.8857 125.793 54.9452C126.114 50.7559 122.169 48.1424 122 44L124 44L125 47C125.893 42.7758 120.572 41.5289 120.207 46.0949C119.879 50.1944 123.835 52.8754 124 57z"/>
<path style="fill:#0c5061; stroke:none;" d="M124 42L125 43L124 42z"/>
<path style="fill:#0397c0; stroke:none;" d="M130 47C131.015 45.8606 131.309 45.3884 132 44C136.834 48.0261 136.834 52.9739 132 57L131 54C129.208 59.2873 135.998 59.2262 136.852 53.9807C137.262 51.458 137.453 47.5326 136.397 45.1528C134.344 40.5296 130.923 43.969 130 47z"/>
<path style="fill:#086781; stroke:none;" d="M31 43L32 44L31 43M41 43L42 44L41 43z"/>
<path style="fill:#0c4f60; stroke:none;" d="M46 43L47 44L46 43z"/>
<path style="fill:#0e4757; stroke:none;" d="M52 43L53 44L52 43z"/>
<path style="fill:#086781; stroke:none;" d="M72 43L73 44L72 43z"/>
<path style="fill:#0b5468; stroke:none;" d="M83.6667 43.3333C83.2222 43.7778 84.2778 43.7222 84.3333 43.6667C84.7778 43.2223 83.7223 43.2777 83.6667 43.3333M99.6667 43.3333C99.2222 43.7778 100.278 43.7222 100.333 43.6667C100.778 43.2222 99.7222 43.2778 99.6667 43.3333z"/>
<path style="fill:#0e4452; stroke:none;" d="M109 43L110 44L109 43z"/>
<path style="fill:#086781; stroke:none;" d="M125 43L126 44L125 43z"/>
<path style="fill:#0b5669; stroke:none;" d="M130 43L131 44L130 43z"/>
<path style="fill:#09647d; stroke:none;" d="M28.6667 44.3333C28.2222 44.7778 29.2778 44.7222 29.3333 44.6667C29.7778 44.2222 28.7222 44.2778 28.6667 44.3333z"/>
<path style="fill:#067998; stroke:none;" d="M35 44L35 49C35.8299 46.9695 35.8299 46.0305 35 44z"/>
<path style="fill:#086882; stroke:none;" d="M38.6667 44.3333C38.2222 44.7778 39.2778 44.7222 39.3333 44.6667C39.7778 44.2223 38.7222 44.2778 38.6667 44.3333z"/>
<path style="fill:#0b586d; stroke:none;" d="M42 44L42 47C42.6961 45.4463 42.6961 45.5537 42 44z"/>
<path style="fill:#077897; stroke:none;" d="M49.6667 44.3333C49.2222 44.7778 50.2778 44.7222 50.3333 44.6667C50.7778 44.2222 49.7222 44.2778 49.6667 44.3333z"/>
<path style="fill:#09647d; stroke:none;" d="M69.6667 44.3333C69.2222 44.7778 70.2778 44.7222 70.3333 44.6667C70.7778 44.2222 69.7222 44.2778 69.6667 44.3333z"/>
<path style="fill:#0c5264; stroke:none;" d="M86 44L87 45L86 44z"/>
<path style="fill:#0487ab; stroke:none;" d="M89 44C87.8168 48.9697 88 53.9185 88 59L90 59C90 54.1834 90.8763 48.4714 89 44z"/>
<path style="fill:#0c5264; stroke:none;" d="M102 44L103 45L102 44z"/>
<path style="fill:#0487ab; stroke:none;" d="M105 44C103.817 48.9697 104 53.9185 104 59L106 59C106 54.1834 106.876 48.4714 105 44z"/>
<path style="fill:#086c86; stroke:none;" d="M112.667 44.3333C112.222 44.7778 113.278 44.7222 113.333 44.6667C113.778 44.2222 112.722 44.2778 112.667 44.3333z"/>
<path style="fill:#0b566a; stroke:none;" d="M116 44L116 57C117.591 53.2087 117.591 47.7913 116 44z"/>
<path style="fill:#067998; stroke:none;" d="M119 44L119 49C119.83 46.9695 119.83 46.0305 119 44z"/>
<path style="fill:#086882; stroke:none;" d="M122.667 44.3333C122.222 44.7778 123.278 44.7222 123.333 44.6667C123.778 44.2222 122.722 44.2778 122.667 44.3333z"/>
<path style="fill:#0b586d; stroke:none;" d="M126 44L126 47C126.696 45.4463 126.696 45.5537 126 44z"/>
<path style="fill:#0c4e60; stroke:none;" d="M132.667 44.3333C132.222 44.7777 133.278 44.7223 133.333 44.6667C133.778 44.2222 132.722 44.2778 132.667 44.3333z"/>
<path style="fill:#151817; stroke:none;" d="M27 45L27 56L31 56L31 45L27 45z"/>
<path style="fill:#10333c; stroke:none;" d="M37 45L37 48C37.6961 46.4463 37.6961 46.5537 37 45z"/>
<path style="fill:#0b566a; stroke:none;" d="M40.3333 45.6667C40.2778 45.7222 40.2222 46.7778 40.6667 46.3333C40.7223 46.2777 40.7777 45.2223 40.3333 45.6667z"/>
<path style="fill:#151817; stroke:none;" d="M47 49L51 49L51 45C48.3735 45.8387 47.8387 46.3735 47 49z"/>
<path style="fill:#086b85; stroke:none;" d="M53 45L53 51C53.9511 48.7147 53.9511 47.2853 53 45z"/>
<path style="fill:#151817; stroke:none;" d="M68 45L68 56L72 56L72 45L68 45z"/>
<path style="fill:#122529; stroke:none;" d="M87 45L87 59C88.6668 55.0279 88.6668 48.9721 87 45M90 45L90 59C91.6668 55.0279 91.6668 48.9721 90 45M103 45L103 59C104.667 55.0279 104.667 48.9721 103 45M106 45L106 59C107.667 55.0279 107.667 48.9721 106 45z"/>
<path style="fill:#0e414e; stroke:none;" d="M108.333 45.6667C108.278 45.7222 108.222 46.7778 108.667 46.3333C108.722 46.2778 108.778 45.2222 108.333 45.6667z"/>
<path style="fill:#086b85; stroke:none;" d="M110.333 45.6667C110.278 45.7222 110.222 46.7778 110.667 46.3333C110.722 46.2778 110.778 45.2222 110.333 45.6667z"/>
<path style="fill:#0b566a; stroke:none;" d="M114 45L114 49C114.71 47.2405 114.71 46.7595 114 45z"/>
<path style="fill:#10333c; stroke:none;" d="M121 45L121 48C121.696 46.4463 121.696 46.5537 121 45z"/>
<path style="fill:#0b566a; stroke:none;" d="M124.333 45.6667C124.278 45.7222 124.222 46.7778 124.667 46.3333C124.722 46.2778 124.778 45.2222 124.333 45.6667z"/>
<path style="fill:#0487ab; stroke:none;" d="M129 45L129 56C131.426 52.4483 131.426 48.5517 129 45z"/>
<path style="fill:#086883; stroke:none;" d="M131 45L132 46L131 45z"/>
<path style="fill:#151817; stroke:none;" d="M132 57L134 57C135.171 53.0398 135 49.1129 135 45C129.622 46.7848 130.903 52.3937 132 57z"/>
<path style="fill:#0c4e60; stroke:none;" d="M137.333 45.6667C137.278 45.7223 137.222 46.7778 137.667 46.3333C137.722 46.2778 137.778 45.2222 137.333 45.6667z"/>
<path style="fill:#086b85; stroke:none;" d="M24 46L24 53C25.0595 50.4657 25.0595 48.5343 24 46z"/>
<path style="fill:#0e414e; stroke:none;" d="M26 46L26 54C27.1614 51.2301 27.1614 48.7699 26 46z"/>
<path style="fill:#0e4351; stroke:none;" d="M51 46L51 49C51.6961 47.4463 51.6961 47.5537 51 46z"/>
<path style="fill:#086b85; stroke:none;" d="M65 46L65 53C66.0595 50.4657 66.0595 48.5343 65 46z"/>
<path style="fill:#0e414e; stroke:none;" d="M67 46L67 54C68.1614 51.2301 68.1614 48.7699 67 46M78 46L78 59C79.5909 55.2087 79.5909 49.7913 78 46z"/>
<path style="fill:#067998; stroke:none;" d="M82 46L82 59C83.5909 55.2087 83.5909 49.7913 82 46z"/>
<path style="fill:#10333c; stroke:none;" d="M84 46L84 59C85.5909 55.2087 85.5909 49.7913 84 46z"/>
<path style="fill:#0e414e; stroke:none;" d="M94 46L94 59C95.5909 55.2087 95.5909 49.7913 94 46z"/>
<path style="fill:#067998; stroke:none;" d="M98 46L98 59C99.5909 55.2087 99.5909 49.7913 98 46z"/>
<path style="fill:#10333c; stroke:none;" d="M100 46L100 59C101.591 55.2087 101.591 49.7913 100 46z"/>
<path style="fill:#0f3c47; stroke:none;" d="M135 46L135 55C136.256 52.0059 136.256 48.9941 135 46z"/>
<path style="fill:#086c88; stroke:none;" d="M31 47L31 52C31.8299 49.9695 31.8299 49.0305 31 47z"/>
<path style="fill:#0e414e; stroke:none;" d="M33 47L33 54C34.0595 51.4657 34.0595 49.5343 33 47z"/>
<path style="fill:#10333c; stroke:none;" d="M44 47L44 53C44.9511 50.7147 44.9511 49.2853 44 47z"/>
<path style="fill:#086c88; stroke:none;" d="M72 47L72 52C72.8299 49.9695 72.8299 49.0305 72 47z"/>
<path style="fill:#0e414e; stroke:none;" d="M74 47L74 54C75.0595 51.4657 75.0595 49.5343 74 47z"/>
<path style="fill:#10333c; stroke:none;" d="M128 47L128 53C128.951 50.7148 128.951 49.2853 128 47z"/>
<path style="fill:#067998; stroke:none;" d="M137 47L137 54C138.059 51.4657 138.059 49.5343 137 47z"/>
<path style="fill:#09667f; stroke:none;" d="M41 50L42 51L41 50z"/>
<path style="fill:#096178; stroke:none;" d="M109 50L110 51L109 50z"/>
<path style="fill:#09667f; stroke:none;" d="M125 50L126 51L125 50z"/>
<path style="fill:#0c5265; stroke:none;" d="M38 51L39 52L38 51z"/>
<path style="fill:#067998; stroke:none;" d="M42 51L42 57C42.9511 54.7147 42.9511 53.2853 42 51z"/>
<path style="fill:#122529; stroke:none;" d="M47 51L47 55C47.6848 53.7516 47.7488 53.4516 48 52L54 52C51.6684 51.0155 49.5433 51.0187 47 51z"/>
<path style="fill:#151817; stroke:none;" d="M112 51C111.438 52.8006 111.176 54.1218 111 56L114 56L114 51L112 51z"/>
<path style="fill:#0b566a; stroke:none;" d="M114 51L114 55C114.71 53.2405 114.71 52.7595 114 51z"/>
<path style="fill:#0c5265; stroke:none;" d="M122 51L123 52L122 51z"/>
<path style="fill:#067998; stroke:none;" d="M126 51L126 57C126.951 54.7147 126.951 53.2853 126 51z"/>
<path style="fill:#0a5e76; stroke:none;" d="M14.6667 52.3333C14.2222 52.7778 15.2778 52.7222 15.3333 52.6667C15.7778 52.2222 14.7222 52.2778 14.6667 52.3333z"/>
<path style="fill:#067998; stroke:none;" d="M108 52L108 57C108.83 54.9695 108.83 54.0305 108 52z"/>
<path style="fill:#0e3f4b; stroke:none;" d="M110 52L110 56C110.71 54.2405 110.71 53.7595 110 52z"/>
<path style="fill:#0d4858; stroke:none;" d="M24.3333 53.6667C24.2778 53.7222 24.2222 54.7778 24.6667 54.3333C24.7222 54.2778 24.7778 53.2222 24.3333 53.6667z"/>
<path style="fill:#0f3a44; stroke:none;" d="M35.6667 53.3333C35.2222 53.7778 36.2778 53.7222 36.3333 53.6667C36.7778 53.2222 35.7222 53.2778 35.6667 53.3333z"/>
<path style="fill:#10333c; stroke:none;" d="M40 53L40 56C40.6961 54.4463 40.6961 54.5537 40 53z"/>
<path style="fill:#0e4351; stroke:none;" d="M51 53L51 56C51.6961 54.4463 51.6961 54.5537 51 53z"/>
<path style="fill:#086b85; stroke:none;" d="M53 53L53 56C53.6961 54.4463 53.6961 54.5537 53 53z"/>
<path style="fill:#0d4858; stroke:none;" d="M65.3333 53.6667C65.2778 53.7222 65.2222 54.7778 65.6667 54.3333C65.7222 54.2778 65.7778 53.2222 65.3333 53.6667z"/>
<path style="fill:#0f3a44; stroke:none;" d="M119.667 53.3333C119.222 53.7778 120.278 53.7222 120.333 53.6667C120.778 53.2222 119.722 53.2778 119.667 53.3333z"/>
<path style="fill:#10333c; stroke:none;" d="M124 53L124 56C124.696 54.4463 124.696 54.5537 124 53z"/>
<path style="fill:#0f3c47; stroke:none;" d="M137.333 54.6667C137.278 54.7223 137.222 55.7778 137.667 55.3333C137.722 55.2778 137.778 54.2222 137.333 54.6667z"/>
<path style="fill:#09657e; stroke:none;" d="M47 55L48 56L47 55z"/>
<path style="fill:#0a5c73; stroke:none;" d="M131 55L132 56L131 55z"/>
<path style="fill:#0d4a59; stroke:none;" d="M17.6667 56.3333C17.2222 56.7777 18.2778 56.7222 18.3333 56.6667C18.7778 56.2222 17.7222 56.2778 17.6667 56.3333z"/>
<path style="fill:#0e4654; stroke:none;" d="M28.6667 56.3333C28.2222 56.7777 29.2778 56.7222 29.3333 56.6667C29.7778 56.2222 28.7222 56.2778 28.6667 56.3333z"/>
<path style="fill:#0e3e4a; stroke:none;" d="M38.6667 56.3333C38.2222 56.7778 39.2778 56.7222 39.3333 56.6667C39.7778 56.2223 38.7222 56.2778 38.6667 56.3333z"/>
<path style="fill:#0a5e76; stroke:none;" d="M48 56L49 57L48 56z"/>
<path style="fill:#0b586b; stroke:none;" d="M50 56L51 57L50 56z"/>
<path style="fill:#0e4654; stroke:none;" d="M69.6667 56.3333C69.2222 56.7778 70.2778 56.7222 70.3333 56.6667C70.7778 56.2222 69.7222 56.2778 69.6667 56.3333z"/>
<path style="fill:#0e4351; stroke:none;" d="M111.667 56.3333C111.222 56.7778 112.278 56.7222 112.333 56.6667C112.778 56.2222 111.722 56.2778 111.667 56.3333z"/>
<path style="fill:#0e3e4a; stroke:none;" d="M122.667 56.3333C122.222 56.7778 123.278 56.7222 123.333 56.6667C123.778 56.2222 122.722 56.2778 122.667 56.3333z"/>
<path style="fill:#09667f; stroke:none;" d="M46 57L47 58L46 57z"/>
<path style="fill:#0b5669; stroke:none;" d="M52 57L53 58L52 57z"/>
<path style="fill:#0c5367; stroke:none;" d="M114 57L115 58L114 57z"/>
<path style="fill:#067c9b; stroke:none;" d="M117.333 57.6667C117.278 57.7222 117.222 58.7778 117.667 58.3333C117.722 58.2778 117.778 57.2222 117.333 57.6667z"/>
<path style="fill:#0e4452; stroke:none;" d="M136 57L137 58L136 57z"/>
<path style="fill:#086780; stroke:none;" d="M19 58L20 59L19 58z"/>
<path style="fill:#09627b; stroke:none;" d="M30 58L31 59L30 58z"/>
<path style="fill:#0c5163; stroke:none;" d="M47 58L48 59L47 58z"/>
<path style="fill:#0b5468; stroke:none;" d="M51 58L52 59L51 58z"/>
<path style="fill:#09627b; stroke:none;" d="M71 58L72 59L71 58z"/>
<path style="fill:#0b576c; stroke:none;" d="M115 58L116 59L115 58z"/>
<path style="fill:#0a5b70; stroke:none;" d="M131 58L132 59L131 58z"/>
<path style="fill:#6d6f6e; stroke:none;" d="M82 89L83 90L82 89z"/>
<path style="fill:#ffffff; stroke:none;" d="M64 141C70.868 140.466 71.6568 134.657 73.8079 129C78.6283 116.324 85.9901 102.419 88 89C81.314 89.5317 80.5014 95.4912 78.4236 101C73.4996 114.054 67.1473 127.402 64 141z"/>
<path style="fill:#c5c6c5; stroke:none;" d="M88 89L89 90L88 89M82 90L83 91L82 90z"/>
<path style="fill:#6d6f6e; stroke:none;" d="M88 90L89 91L88 90z"/>
<path style="fill:#8a8c8b; stroke:none;" d="M81 92L82 93L81 92z"/>
<path style="fill:#a7a9a8; stroke:none;" d="M87 92L88 93L87 92z"/>
<path style="fill:#4f5251; stroke:none;" d="M87 93L88 94L87 93z"/>
<path style="fill:#363938; stroke:none;" d="M57.6667 94.3333C57.2222 94.7778 58.2778 94.7222 58.3333 94.6667C58.7778 94.2222 57.7222 94.2778 57.6667 94.3333z"/>
<path style="fill:#4f5251; stroke:none;" d="M80 94L81 95L80 94z"/>
<path style="fill:#8a8c8b; stroke:none;" d="M56 95L57 96L56 95z"/>
<path style="fill:#ffffff; stroke:none;" d="M57 95C50.8036 98.7924 44.3838 102.227 38 105.691C35.2737 107.171 31.6824 108.398 30.0278 111.213C28.3714 114.031 28.9033 117.891 31.3179 120.046C37.8205 125.849 49.676 131.602 58 134C57.9979 131.296 58.4999 127.784 56.9722 125.39C53.8123 120.44 43.2734 117.196 38 115C46.0224 110.318 62.1495 107.272 57 95z"/>
<path style="fill:#636564; stroke:none;" d="M58 95L58 105C59.3457 101.793 59.3457 98.207 58 95z"/>
<path style="fill:#a7a9a8; stroke:none;" d="M80 95L81 96L80 95z"/>
<path style="fill:#8a8c8b; stroke:none;" d="M86 95L87 96L86 95z"/>
<path style="fill:#858786; stroke:none;" d="M95 95L95 105C96.3457 101.793 96.3457 98.207 95 95z"/>
<path style="fill:#ffffff; stroke:none;" d="M96 95C96.0003 97.9599 95.3582 101.993 97.0278 104.61C100.217 109.609 110.563 112.513 116 114L116 116C110.562 117.487 100.219 120.391 97.0278 125.39C95.5002 127.784 96.0021 131.296 96 134C102.355 132.166 108.23 128.339 114 125.139C116.665 123.66 120.264 122.251 122.397 120.035C124.346 118.008 124.511 113.824 123.397 111.329C121.972 108.14 117.869 106.745 115 105.22C108.659 101.85 102.506 98.0376 96 95z"/>
<path style="fill:#777878; stroke:none;" d="M97 95L98 96L97 95z"/>
<path style="fill:#757776; stroke:none;" d="M54 96L55 97L54 96z"/>
<path style="fill:#626463; stroke:none;" d="M99 96L100 97L99 96z"/>
<path style="fill:#5f6160; stroke:none;" d="M52 97L53 98L52 97z"/>
<path style="fill:#6d6f6e; stroke:none;" d="M79 97L80 98L79 97z"/>
<path style="fill:#c5c6c5; stroke:none;" d="M85 97L86 98L85 97z"/>
<path style="fill:#cfcfcf; stroke:none;" d="M100 97L101 98L100 97z"/>
<path style="fill:#464848; stroke:none;" d="M101 97L102 98L101 97M50 98L51 99L50 98z"/>
<path style="fill:#cccdcd; stroke:none;" d="M51 98L52 99L51 98z"/>
<path style="fill:#c5c6c5; stroke:none;" d="M79 98L80 99L79 98z"/>
<path style="fill:#6d6f6e; stroke:none;" d="M85 98L86 99L85 98z"/>
<path style="fill:#b7b8b8; stroke:none;" d="M102 98L103 99L102 98z"/>
<path style="fill:#b5b6b6; stroke:none;" d="M49 99L50 100L49 99z"/>
<path style="fill:#a1a2a2; stroke:none;" d="M104 99L105 100L104 99z"/>
<path style="fill:#9fa0a0; stroke:none;" d="M47 100L48 101L47 100z"/>
<path style="fill:#8a8c8b; stroke:none;" d="M78 100L79 101L78 100z"/>
<path style="fill:#a7a9a8; stroke:none;" d="M84 100L85 101L84 100z"/>
<path style="fill:#8c8d8d; stroke:none;" d="M106 100L107 101L106 100z"/>
<path style="fill:#8a8c8b; stroke:none;" d="M45 101L46 102L45 101z"/>
<path style="fill:#4f5251; stroke:none;" d="M84 101L85 102L84 101z"/>
<path style="fill:#777878; stroke:none;" d="M108 101L109 102L108 101z"/>
<path style="fill:#757776; stroke:none;" d="M43 102L44 103L43 102z"/>
<path style="fill:#4f5251; stroke:none;" d="M77 102L78 103L77 102z"/>
<path style="fill:#616362; stroke:none;" d="M110 102L111 103L110 102z"/>
<path style="fill:#606261; stroke:none;" d="M41 103L42 104L41 103z"/>
<path style="fill:#a7a9a8; stroke:none;" d="M77 103L78 104L77 103z"/>
<path style="fill:#8a8c8b; stroke:none;" d="M83 103L84 104L83 103z"/>
<path style="fill:#cfcfcf; stroke:none;" d="M111 103L112 104L111 103z"/>
<path style="fill:#464848; stroke:none;" d="M112 103L113 104L112 103M39 104L40 105L39 104z"/>
<path style="fill:#cccdcd; stroke:none;" d="M40 104L41 105L40 104z"/>
<path style="fill:#b6b7b7; stroke:none;" d="M113 104L114 105L113 104z"/>
<path style="fill:#b5b6b6; stroke:none;" d="M38 105L39 106L38 105z"/>
<path style="fill:#717372; stroke:none;" d="M57 105L58 106L57 105z"/>
<path style="fill:#6d6f6e; stroke:none;" d="M76 105L77 106L76 105z"/>
<path style="fill:#c5c6c5; stroke:none;" d="M82 105L83 106L82 105z"/>
<path style="fill:#848686; stroke:none;" d="M96 105L97 106L96 105z"/>
<path style="fill:#a1a2a2; stroke:none;" d="M115 105L116 106L115 105z"/>
<path style="fill:#a0a1a1; stroke:none;" d="M36 106L37 107L36 106z"/>
<path style="fill:#666868; stroke:none;" d="M55 106L56 107L55 106z"/>
<path style="fill:#c5c6c5; stroke:none;" d="M76 106L77 107L76 106z"/>
<path style="fill:#6d6f6e; stroke:none;" d="M82 106L83 107L82 106z"/>
<path style="fill:#808281; stroke:none;" d="M98 106L99 107L98 106z"/>
<path style="fill:#8c8d8d; stroke:none;" d="M117 106L118 107L117 106z"/>
<path style="fill:#8b8c8c; stroke:none;" d="M34 107L35 108L34 107z"/>
<path style="fill:#cbcccc; stroke:none;" d="M52 107L53 108L52 107z"/>
<path style="fill:#5b5d5d; stroke:none;" d="M53 107L54 108L53 107z"/>
<path style="fill:#7a7c7c; stroke:none;" d="M100 107L101 108L100 107z"/>
<path style="fill:#767877; stroke:none;" d="M119 107L120 108L119 107M32 108L33 109L32 108z"/>
<path style="fill:#c0c1c1; stroke:none;" d="M50 108L51 109L50 108z"/>
<path style="fill:#505252; stroke:none;" d="M51 108L52 109L51 108z"/>
<path style="fill:#8a8c8b; stroke:none;" d="M75 108L76 109L75 108z"/>
<path style="fill:#a7a9a8; stroke:none;" d="M81 108L82 109L81 108z"/>
<path style="fill:#767877; stroke:none;" d="M102 108L103 109L102 108z"/>
<path style="fill:#616362; stroke:none;" d="M121 108L122 109L121 108M30 109L31 110L30 109z"/>
<path style="fill:#b5b6b6; stroke:none;" d="M48 109L49 110L48 109z"/>
<path style="fill:#444746; stroke:none;" d="M49 109L50 110L49 109z"/>
<path style="fill:#4f5251; stroke:none;" d="M81 109L82 110L81 109z"/>
<path style="fill:#717372; stroke:none;" d="M104 109L105 110L104 109z"/>
<path style="fill:#cfcfcf; stroke:none;" d="M122 109L123 110L122 109z"/>
<path style="fill:#464848; stroke:none;" d="M123 109L124 110L123 109z"/>
<path style="fill:#d0d0d0; stroke:none;" d="M29 110L30 111L29 110z"/>
<path style="fill:#a9aaaa; stroke:none;" d="M46 110L47 111L46 110z"/>
<path style="fill:#4f5251; stroke:none;" d="M74 110L75 111L74 110z"/>
<path style="fill:#6e6f6f; stroke:none;" d="M106 110L107 111L106 110z"/>
<path style="fill:#a5a6a5; stroke:none;" d="M124 110L125 111L124 110z"/>
<path style="fill:#a0a1a1; stroke:none;" d="M44 111L45 112L44 111z"/>
<path style="fill:#a7a9a8; stroke:none;" d="M74 111L75 112L74 111z"/>
<path style="fill:#8a8c8b; stroke:none;" d="M80 111L81 112L80 111z"/>
<path style="fill:#676968; stroke:none;" d="M108 111L109 112L108 111z"/>
<path style="fill:#dedede; stroke:none;" d="M124 111L124 119C125.161 116.23 125.161 113.77 124 111z"/>
<path style="fill:#959696; stroke:none;" d="M42 112L43 113L42 112z"/>
<path style="fill:#626463; stroke:none;" d="M110 112L111 113L110 112z"/>
<path style="fill:#d3d4d4; stroke:none;" d="M111 112L112 113L111 112z"/>
<path style="fill:#8a8c8b; stroke:none;" d="M40 113L41 114L40 113z"/>
<path style="fill:#6d6f6e; stroke:none;" d="M73 113L74 114L73 113z"/>
<path style="fill:#c5c6c5; stroke:none;" d="M79 113L80 114L79 113z"/>
<path style="fill:#5d5f5e; stroke:none;" d="M112 113L113 114L112 113z"/>
<path style="fill:#cfcfcf; stroke:none;" d="M113 113L114 114L113 113z"/>
<path style="fill:#848686; stroke:none;" d="M38 114L39 115L38 114z"/>
<path style="fill:#c5c6c5; stroke:none;" d="M73 114L74 115L73 114z"/>
<path style="fill:#6d6f6e; stroke:none;" d="M79 114L80 115L79 114z"/>
<path style="fill:#585a59; stroke:none;" d="M114.333 114.667C114.278 114.722 114.222 115.778 114.667 115.333C114.722 115.278 114.778 114.222 114.333 114.667z"/>
<path style="fill:#cacbcb; stroke:none;" d="M115.333 114.667C115.278 114.722 115.222 115.778 115.667 115.333C115.722 115.278 115.778 114.222 115.333 114.667z"/>
<path style="fill:#7c7e7d; stroke:none;" d="M39 115L40 116L39 115z"/>
<path style="fill:#7b7d7c; stroke:none;" d="M41 116L42 117L41 116z"/>
<path style="fill:#8a8c8b; stroke:none;" d="M72 116L73 117L72 116z"/>
<path style="fill:#a7a9a8; stroke:none;" d="M78 116L79 117L78 116z"/>
<path style="fill:#5c5e5d; stroke:none;" d="M112 116L113 117L112 116z"/>
<path style="fill:#cfcfcf; stroke:none;" d="M113 116L114 117L113 116z"/>
<path style="fill:#7a7c7c; stroke:none;" d="M43 117L44 118L43 117z"/>
<path style="fill:#4f5251; stroke:none;" d="M78 117L79 118L78 117z"/>
<path style="fill:#626463; stroke:none;" d="M110 117L111 118L110 117z"/>
<path style="fill:#d3d4d4; stroke:none;" d="M111 117L112 118L111 117z"/>
<path style="fill:#797b7b; stroke:none;" d="M45 118L46 119L45 118z"/>
<path style="fill:#4f5251; stroke:none;" d="M71 118L72 119L71 118z"/>
<path style="fill:#666868; stroke:none;" d="M108 118L109 119L108 118z"/>
<path style="fill:#8e8f8f; stroke:none;" d="M29 119L30 120L29 119z"/>
<path style="fill:#797b7b; stroke:none;" d="M47 119L48 120L47 119z"/>
<path style="fill:#a7a9a8; stroke:none;" d="M71 119L72 120L71 119z"/>
<path style="fill:#8a8c8b; stroke:none;" d="M77 119L78 120L77 119z"/>
<path style="fill:#6e6f6f; stroke:none;" d="M106 119L107 120L106 119z"/>
<path style="fill:#737574; stroke:none;" d="M124 119L125 120L124 119z"/>
<path style="fill:#a5a6a5; stroke:none;" d="M31 120L32 121L31 120z"/>
<path style="fill:#797a7a; stroke:none;" d="M49 120L50 121L49 120z"/>
<path style="fill:#707272; stroke:none;" d="M104 120L105 121L104 120z"/>
<path style="fill:#919392; stroke:none;" d="M122 120L123 121L122 120z"/>
<path style="fill:#babbba; stroke:none;" d="M33 121L34 122L33 121z"/>
<path style="fill:#787979; stroke:none;" d="M51 121L52 122L51 121z"/>
<path style="fill:#6d6f6e; stroke:none;" d="M70 121L71 122L70 121z"/>
<path style="fill:#c5c6c5; stroke:none;" d="M76 121L77 122L76 121z"/>
<path style="fill:#767877; stroke:none;" d="M102 121L103 122L102 121z"/>
<path style="fill:#a6a8a7; stroke:none;" d="M120 121L121 122L120 121z"/>
<path style="fill:#4a4c4b; stroke:none;" d="M34 122L35 123L34 122z"/>
<path style="fill:#d3d3d3; stroke:none;" d="M35 122L36 123L35 122z"/>
<path style="fill:#777878; stroke:none;" d="M53 122L54 123L53 122z"/>
<path style="fill:#c5c6c5; stroke:none;" d="M70 122L71 123L70 122z"/>
<path style="fill:#6d6f6e; stroke:none;" d="M76 122L77 123L76 122z"/>
<path style="fill:#7a7c7c; stroke:none;" d="M100 122L101 123L100 122z"/>
<path style="fill:#bcbdbd; stroke:none;" d="M118 122L119 123L118 122z"/>
<path style="fill:#646666; stroke:none;" d="M36 123L37 124L36 123z"/>
<path style="fill:#767877; stroke:none;" d="M55 123L56 124L55 123z"/>
<path style="fill:#808281; stroke:none;" d="M98 123L99 124L98 123z"/>
<path style="fill:#d3d3d3; stroke:none;" d="M116 123L117 124L116 123z"/>
<path style="fill:#4d504f; stroke:none;" d="M117 123L118 124L117 123z"/>
<path style="fill:#797b7b; stroke:none;" d="M38 124L39 125L38 124z"/>
<path style="fill:#767877; stroke:none;" d="M57 124L58 125L57 124z"/>
<path style="fill:#8a8c8b; stroke:none;" d="M69 124L70 125L69 124z"/>
<path style="fill:#a7a9a8; stroke:none;" d="M75 124L76 125L75 124z"/>
<path style="fill:#848686; stroke:none;" d="M96 124L97 125L96 124z"/>
<path style="fill:#666868; stroke:none;" d="M115 124L116 125L115 124z"/>
<path style="fill:#909190; stroke:none;" d="M40 125L41 126L40 125z"/>
<path style="fill:#636564; stroke:none;" d="M58 125L58 135C59.3457 131.793 59.3457 128.207 58 125z"/>
<path style="fill:#4f5251; stroke:none;" d="M75 125L76 126L75 125z"/>
<path style="fill:#858786; stroke:none;" d="M95 125L95 135C96.3457 131.793 96.3457 128.207 95 125z"/>
<path style="fill:#7c7e7d; stroke:none;" d="M113 125L114 126L113 125z"/>
<path style="fill:#a3a4a4; stroke:none;" d="M42 126L43 127L42 126z"/>
<path style="fill:#4f5251; stroke:none;" d="M68 126L69 127L68 126z"/>
<path style="fill:#919392; stroke:none;" d="M111 126L112 127L111 126z"/>
<path style="fill:#babbba; stroke:none;" d="M44 127L45 128L44 127z"/>
<path style="fill:#a7a9a8; stroke:none;" d="M68 127L69 128L68 127z"/>
<path style="fill:#8a8c8b; stroke:none;" d="M74 127L75 128L74 127z"/>
<path style="fill:#a6a8a7; stroke:none;" d="M109 127L110 128L109 127z"/>
<path style="fill:#4e5150; stroke:none;" d="M45 128L46 129L45 128z"/>
<path style="fill:#d3d4d4; stroke:none;" d="M46 128L47 129L46 128z"/>
<path style="fill:#bcbcbc; stroke:none;" d="M107 128L108 129L107 128z"/>
<path style="fill:#646666; stroke:none;" d="M47 129L48 130L47 129z"/>
<path style="fill:#6d6f6e; stroke:none;" d="M67 129L68 130L67 129z"/>
<path style="fill:#c5c6c5; stroke:none;" d="M73 129L74 130L73 129z"/>
<path style="fill:#d3d3d3; stroke:none;" d="M105 129L106 130L105 129z"/>
<path style="fill:#4d504f; stroke:none;" d="M106 129L107 130L106 129z"/>
<path style="fill:#797b7b; stroke:none;" d="M49 130L50 131L49 130z"/>
<path style="fill:#c5c6c5; stroke:none;" d="M67 130L68 131L67 130z"/>
<path style="fill:#6d6f6e; stroke:none;" d="M73 130L74 131L73 130z"/>
<path style="fill:#666868; stroke:none;" d="M104 130L105 131L104 130z"/>
<path style="fill:#909190; stroke:none;" d="M51 131L52 132L51 131z"/>
<path style="fill:#7b7d7c; stroke:none;" d="M102 131L103 132L102 131z"/>
<path style="fill:#a5a6a5; stroke:none;" d="M53 132L54 133L53 132z"/>
<path style="fill:#8a8c8b; stroke:none;" d="M66 132L67 133L66 132z"/>
<path style="fill:#a7a9a8; stroke:none;" d="M72 132L73 133L72 132z"/>
<path style="fill:#909291; stroke:none;" d="M100 132L101 133L100 132z"/>
<path style="fill:#bcbcbc; stroke:none;" d="M55 133L56 134L55 133z"/>
<path style="fill:#4f5251; stroke:none;" d="M72 133L73 134L72 133z"/>
<path style="fill:#a6a7a6; stroke:none;" d="M98 133L99 134L98 133z"/>
<path style="fill:#4a4c4b; stroke:none;" d="M56 134L57 135L56 134z"/>
<path style="fill:#d3d3d3; stroke:none;" d="M57 134L58 135L57 134z"/>
<path style="fill:#4f5251; stroke:none;" d="M65 134L66 135L65 134z"/>
<path style="fill:#bcbcbc; stroke:none;" d="M96 134L97 135L96 134z"/>
<path style="fill:#a7a9a8; stroke:none;" d="M65 135L66 136L65 135z"/>
<path style="fill:#8a8c8b; stroke:none;" d="M71 135L72 136L71 135z"/>
<path style="fill:#6d6f6e; stroke:none;" d="M64 137L65 138L64 137z"/>
<path style="fill:#c5c6c5; stroke:none;" d="M70 137L71 138L70 137M64 138L65 139L64 138z"/>
<path style="fill:#6d6f6e; stroke:none;" d="M70 138L71 139L70 138z"/>
<path style="fill:#8a8c8b; stroke:none;" d="M63 140L64 141L63 140z"/>
<path style="fill:#a7a9a8; stroke:none;" d="M69 140L70 141L69 140z"/>
</svg>
